<?xml version="1.0" standalone="no"?>
<!DOCTYPE svg PUBLIC "-//W3C//DTD SVG 1.1//EN" "http://www.w3.org/Graphics/SVG/1.1/DTD/svg11.dtd" >
<svg xmlns="http://www.w3.org/2000/svg" xmlns:svg="http://www.w3.org/2000/svg" xmlns:xlink="http://www.w3.org/1999/xlink" viewBox="0 0 1024 1024"><path d="M563 945.5Q537.08 943.58 514.08 927.58Q493.2 913.7 473.2 891.7Q461.28 877.78 463.28 855.78L475.37 837.87Q491.46 827.96 513.46 829.96Q535.54 842.04 553.54 858.04Q565.62 801.12 569.62 714.62Q575.7 630.2 579.7 544.2L393.76 556.26Q363.84 555.34 363.84 520.34L367.9 320.4Q375.95 284.45 416.95 283.45L573.99 288.49L580.03 179.53H410.06Q396.08 181.58 384.08 171.58Q374.07 159.57 376.07 137.57L388.08 119.58Q404.07 109.57 424.07 109.57Q640.04 115.54 660.04 119.54Q681.99 125.49 673.99 199.49L669.95 342.45Q670.89 390.39 607.89 386.39H473.81L471.71 506.21L665.59 502.09Q697.48 503.98 700.48 522.98Q705.34 543.84 699.34 616.84Q695.18 691.68 689.18 788.68Q685 887.5 671 949.5Q658.79 1013.29 624.79 1007.29ZM951.36 1017.86Q919.1 1011.6 893.1 985.6Q860.83 963.33 860.83 925.33L872.52 907.02Q888.22 896.72 910.22 898.72Q929.88 906.38 943.88 920.38Q964.52 739.02 959.52 617.02L786.12 622.62Q756.73 626.23 747.73 580.23Q755.3 407.8 762.3 378.3Q770.84 350.34 791.84 348.84Q814.36 348.86 957.36 350.86L960.84 245.34L811.32 242.82Q796.76 242.26 784.76 232.26Q774.18 219.68 776.18 197.68L787.57 179.07L808.93 170.43Q1009.26 167.76 1035.26 174.76Q1062.56 183.06 1050.56 243.06L1047.84 401.34Q1048.08 440.58 1031.58 441.58Q1016.3 443.8 856.3 443.8L849.47 564.97Q1038.64 564.14 1054.64 566.64Q1071.77 570.27 1065.77 643.27Q1054.86 903.36 1053.86 950.36Q1053.92 998.42 1039.92 1031.92Q1026.95 1066.45 990.95 1057.45ZM192.92 1039.42L173.86 1030.36Q162.76 1017.26 164.76 995.26L175.64 976.14Q220.46 952.96 262.46 924.96Q305.26 897.76 354.26 883.76L375.03 894.53Q387.76 909.26 385.76 931.26L376.46 951.96Q332.13 978.63 290.13 1006.63Q248.76 1035.26 200.76 1047.26ZM816.91 948.41Q801.45 946.95 789.45 936.95Q777.91 921.41 779.91 899.41L790.38 878.88Q832.81 863.31 874.31 848.31Q916.18 833.68 960.18 821.68L980.52 832.02Q992.83 846.33 990.83 868.33L981.12 889.62Q943.34 911.84 902.34 924.84Q861.54 938.04 820.54 952.04ZM470.85 946.35Q454.93 944.43 442.93 934.43Q430.98 920.48 432.98 898.48L443 877.5Q480.98 857.48 522.98 842.48Q564.93 827.43 608.93 819.43L628.85 829.35Q640.72 843.22 638.72 865.22L628.54 885.04Q590.34 903.84 550.34 916.84Q510.12 929.62 470.12 945.62ZM860.52 810.02L839.18 799.68L798.81 767.31Q786.38 750.88 788.38 728.88L797.91 708.41Q811.45 695.95 833.45 697.95L891.91 737.41Q905.35 752.85 903.35 776.85L892.76 796.26Q878.13 807.63 856.13 805.63ZM533.76 782.26Q495.03 767.53 457.03 751.53Q444.26 736.76 446.26 714.76L455.46 693.96Q472.64 679.14 496.64 683.14Q531.76 690.26 563.76 710.26Q576.86 725.36 574.86 747.36L563.92 766.42Q548.95 777.45 526.95 775.45ZM323.92 519.42Q286.86 506.36 249.86 494.36Q211.77 481.27 175.77 469.27Q162.64 454.14 164.64 432.14L173.47 410.97Q190.3 395.8 216.3 399.8Q249.08 408.58 283.08 418.58Q315.84 427.34 348.84 443.34Q359.56 456.06 357.56 478.06L346.26 496.76Q330.93 505.43 311.93 507.43ZM344.18 285.68Q299.76 268.26 258.76 252.26Q216.32 234.82 174.32 220.82Q158.84 203.34 160.84 181.34L169.36 159.86Q183.84 144.34 207.84 148.34Q248.3 158.8 288.8 174.8Q327.73 189.23 367.73 207.23Q380.12 221.62 378.12 243.62L366.52 262.02Q350.88 272.38 328.88 270.38Z" fill="black"></path></svg>