<?xml version="1.0" standalone="no"?>
<!DOCTYPE svg PUBLIC "-//W3C//DTD SVG 1.1//EN" "http://www.w3.org/Graphics/SVG/1.1/DTD/svg11.dtd" >
<svg xmlns="http://www.w3.org/2000/svg" xmlns:svg="http://www.w3.org/2000/svg" xmlns:xlink="http://www.w3.org/1999/xlink" viewBox="0 0 1024 1024"><path d="M563.0 945.5Q535.0 941.5 512.0 925.5Q489.0 909.5 469.0 887.5Q455.0 871.5 457.0 849.5L467.0 829.5Q481.0 817.5 503.0 819.5Q523.0 829.5 541.0 845.5Q551.0 786.5 555.0 700.0Q559.0 613.5 563.0 527.5L375.0 537.5Q343.0 534.5 343.0 499.5L345.0 297.5Q351.0 259.5 392.0 258.5L547.0 261.5L551.0 150.5H379.0Q363.0 148.5 351.0 138.5Q339.0 124.5 341.0 102.5L351.0 82.5Q365.0 70.5 385.0 70.5Q599.0 74.5 619.0 78.5Q639.0 82.5 631.0 156.5L625.0 297.5Q624.0 343.5 561.0 339.5H425.0L421.0 455.5L613.0 449.5Q643.0 449.5 646.0 468.5Q649.0 487.5 643.0 560.5Q637.0 633.5 631.0 730.5Q625.0 827.5 611.0 889.5Q597.0 951.5 563.0 945.5ZM886.0 952.5Q852.0 944.5 826.0 918.5Q792.0 894.5 792.0 856.5L802.0 836.5Q816.0 824.5 838.0 826.5Q856.0 832.5 870.0 846.5Q889.0 663.5 884.0 541.5L709.0 545.5Q678.0 547.5 669.0 501.5Q675.0 327.5 682.0 298.0Q689.0 268.5 710.0 267.0Q731.0 265.5 874.0 267.5L876.0 160.5L725.0 156.5Q709.0 154.5 697.0 144.5Q685.0 130.5 687.0 108.5L697.0 88.5L717.0 78.5Q916.0 74.5 942.0 81.5Q968.0 88.5 956.0 148.5L952.0 305.5Q951.0 343.5 934.5 344.5Q918.0 345.5 758.0 345.5L750.0 465.5Q938.0 463.5 954.0 466.0Q970.0 468.5 964.0 541.5Q952.0 800.5 951.0 847.5Q950.0 894.5 936.0 928.0Q922.0 961.5 886.0 952.5ZM86.0 932.5 66.0 922.5Q54.0 908.5 56.0 886.5L66.0 866.5Q110.0 842.5 152.0 814.5Q194.0 786.5 243.0 772.5L263.0 782.5Q275.0 796.5 273.0 818.5L263.0 838.5Q218.0 864.5 176.0 892.5Q134.0 920.5 86.0 932.5ZM701.0 832.5Q685.0 830.5 673.0 820.5Q661.0 804.5 663.0 782.5L673.0 761.5Q715.0 745.5 756.5 730.5Q798.0 715.5 842.0 703.5L862.0 713.5Q874.0 727.5 872.0 749.5L862.0 770.5Q824.0 792.5 783.0 805.5Q742.0 818.5 701.0 832.5ZM351.0 826.5Q335.0 824.5 323.0 814.5Q311.0 800.5 313.0 778.5L323.0 757.5Q361.0 737.5 403.0 722.5Q445.0 707.5 489.0 699.5L509.0 709.5Q521.0 723.5 519.0 745.5L509.0 765.5Q471.0 784.5 431.0 797.5Q391.0 810.5 351.0 826.5ZM742.0 691.5 721.0 681.5 681.0 649.5Q669.0 633.5 671.0 611.5L681.0 591.5Q695.0 579.5 717.0 581.5L776.0 621.5Q790.0 637.5 788.0 661.5L778.0 681.5Q764.0 693.5 742.0 691.5ZM421.0 669.5Q383.0 655.5 345.0 639.5Q333.0 625.5 335.0 603.5L345.0 583.5Q363.0 569.5 387.0 573.5Q423.0 581.5 455.0 601.5Q469.0 617.5 467.0 639.5L457.0 659.5Q443.0 671.5 421.0 669.5ZM220.0 415.5Q184.0 403.5 147.0 391.5Q110.0 379.5 74.0 367.5Q62.0 353.5 64.0 331.5L74.0 311.5Q92.0 297.5 118.0 301.5Q152.0 311.5 186.0 321.5Q220.0 331.5 253.0 347.5Q265.0 361.5 263.0 383.5L253.0 403.5Q239.0 413.5 220.0 415.5ZM255.0 196.5Q212.0 180.5 171.0 164.5Q130.0 148.5 88.0 134.5Q74.0 118.5 76.0 96.5L86.0 76.5Q102.0 62.5 126.0 66.5Q168.0 78.5 208.5 94.5Q249.0 110.5 289.0 128.5Q303.0 144.5 301.0 166.5L291.0 186.5Q277.0 198.5 255.0 196.5Z" fill="black"></path></svg>